<svg xmlns="http://www.w3.org/2000/svg" width="44.825" height="26.578" viewBox="0 0 44.825 26.578"><defs><style>.a{fill:#ffb100;}</style></defs><g transform="translate(0 -104.209)"><g transform="translate(0 104.209)"><path class="a" d="M42.764,104.209H2.06A2.063,2.063,0,0,0,0,106.269v6.178a1.692,1.692,0,0,0,.786,1.435A4.228,4.228,0,0,1,2.807,117.5a4.228,4.228,0,0,1-2.021,3.616A1.692,1.692,0,0,0,0,122.549v6.178a2.063,2.063,0,0,0,2.06,2.06h40.7a2.063,2.063,0,0,0,2.06-2.06V106.269A2.063,2.063,0,0,0,42.764,104.209Zm.747,24.518a.748.748,0,0,1-.747.747H10.437v-.045a.657.657,0,1,0-1.313,0v.045H2.06a.748.748,0,0,1-.747-.747v-6.178a.371.371,0,0,1,.164-.318A5.533,5.533,0,0,0,4.12,117.5a5.533,5.533,0,0,0-2.644-4.733.371.371,0,0,1-.164-.318v-6.178a.748.748,0,0,1,.747-.747H9.123v.045a.657.657,0,1,0,1.313,0v-.045H42.764a.748.748,0,0,1,.747.747Z" transform="translate(0 -104.209)"/></g><g transform="translate(9.123 116.14)"><path class="a" d="M104.867,240.485a.657.657,0,0,0-.657.657v1.4a.657.657,0,0,0,1.313,0v-1.4A.656.656,0,0,0,104.867,240.485Z" transform="translate(-104.21 -240.485)"/></g><g transform="translate(9.123 107.718)"><path class="a" d="M104.867,144.292a.657.657,0,0,0-.657.657v1.4a.657.657,0,0,0,1.313,0v-1.4A.657.657,0,0,0,104.867,144.292Z" transform="translate(-104.21 -144.292)"/></g><g transform="translate(9.123 111.929)"><path class="a" d="M104.867,192.387a.657.657,0,0,0-.657.657v1.4a.657.657,0,1,0,1.313,0v-1.4A.657.657,0,0,0,104.867,192.387Z" transform="translate(-104.21 -192.387)"/></g><g transform="translate(9.123 120.35)"><path class="a" d="M104.867,288.581a.657.657,0,0,0-.657.657v1.4a.657.657,0,1,0,1.313,0v-1.4A.657.657,0,0,0,104.867,288.581Z" transform="translate(-104.21 -288.581)"/></g><g transform="translate(9.123 124.561)"><path class="a" d="M104.867,336.677a.657.657,0,0,0-.657.657v1.4a.657.657,0,1,0,1.313,0v-1.4A.657.657,0,0,0,104.867,336.677Z" transform="translate(-104.21 -336.677)"/></g><g transform="translate(18.247 109.122)"><path class="a" d="M225.335,166.436a1.7,1.7,0,0,0-1.508-1.176L219.953,165l-1.447-3.6a1.707,1.707,0,0,0-3.168,0l-1.447,3.6-3.874.263a1.707,1.707,0,0,0-.979,3.013l2.98,2.49-.947,3.766a1.707,1.707,0,0,0,2.563,1.862l3.289-2.065,3.288,2.064a1.707,1.707,0,0,0,2.563-1.862l-.947-3.766,2.98-2.49A1.7,1.7,0,0,0,225.335,166.436Zm-1.371.829-3.3,2.754a.657.657,0,0,0-.216.664l1.048,4.165a.393.393,0,0,1-.591.429l-3.638-2.284a.657.657,0,0,0-.7,0l-3.638,2.284a.393.393,0,0,1-.591-.429l1.048-4.165a.656.656,0,0,0-.216-.664l-3.3-2.754a.394.394,0,0,1,.226-.695l4.285-.291a.657.657,0,0,0,.565-.41l1.6-3.986a.394.394,0,0,1,.73,0l1.6,3.986a.657.657,0,0,0,.565.41l4.285.291a.394.394,0,0,1,.226.695Z" transform="translate(-208.425 -160.324)"/></g></g></svg>