<svg xmlns="http://www.w3.org/2000/svg" viewBox="0 0 638.14 597.72"><defs><style>.cls-1{fill:none;}.cls-1,.cls-2{stroke:#000;stroke-miterlimit:10;stroke-width:35px;}</style></defs><title>Asset 1ldpi</title><g id="Layer_2" data-name="Layer 2"><g id="Layer_1-2" data-name="Layer 1"><path class="cls-1" d="M110,553.15h0c-58.78-8.53-99.9-63.6-91.37-122.39L38.9,291,65.17,110c8.53-58.78,63.61-99.9,122.39-91.37h0c58.78,8.53,99.9,63.61,91.37,122.39L252.84,320.8l-20.46,141C223.85,520.57,168.78,561.68,110,553.15Z"/><path class="cls-2" d="M111,544.15h0c-58.78-8.53-99.9-63.6-91.37-122.39L39.9,282l213.94,29.8-20.46,141C224.85,511.57,169.78,552.68,111,544.15Z"/><line class="cls-1" x1="38.6" y1="273.29" x2="252.6" y2="303.29"/><path class="cls-1" d="M551.25,68.64h0c55.49,21.22,83.52,84,62.3,139.46L563.09,340,497.75,510.84c-21.22,55.48-84,83.51-139.45,62.29h0c-55.48-21.22-83.52-84-62.29-139.45L360.9,264l50.9-133.07C433,75.45,495.77,47.42,551.25,68.64Z"/><path class="cls-2" d="M548.3,77.2h0c55.48,21.22,83.52,84,62.3,139.46l-50.46,131.9L358,272.56l50.9-133.07C430.07,84,492.82,56,548.3,77.2Z"/><line class="cls-1" x1="559.5" y1="357.35" x2="357.3" y2="281.13"/></g></g></svg>